<svg id="Calque_1" data-name="Calque 1" xmlns="http://www.w3.org/2000/svg" viewBox="0 0 340.56 227.6"><defs><style>.cls-1{fill:#fff;}.cls-2{fill:none;}</style></defs><title>veille</title><path class="cls-1" d="M238.56,428.4c-11.35,0-21.67-.13-32,0-10.6.17-18.32,7.81-19.19,18.05-.47,5.59,1,7.84,7.14,7.77,26-.31,52.06-.15,78.09-.15q74.44,0,148.9,0c6.89,0,8.09-1.47,7.12-8.26-1.46-10.35-9.31-17.3-20-17.42-10.29-.12-20.59,0-31.34,0,.26-4,.42-7.07.65-10.12,1.54-20.45,3.2-40.88,4.59-61.33.57-8.44-2.21-11.14-10.59-11.43-3.06-.1-7.19.83-9-.78-9.58-8.6-22.08-9.6-33.31-13.81-6.41-2.4-7.4-6-3-11.64,2.26-2.93,3.73-6.45,5.9-9.45,1.49-2.06,3.24-4.34,5.42-5.39,6.24-3,8.82-9,6.62-15.29a73.36,73.36,0,0,1-2.7-12.55c-.55-3.46-.17-7.12-1-10.47-4.26-16.34-20.13-27.31-36.34-25.42a35,35,0,0,0-30.75,32.91A92,92,0,0,1,271,290.15c-1.55,6.3,1,11.55,7.36,14.33a11.23,11.23,0,0,1,4.49,3.92c2.43,3.6,4.18,7.69,6.74,11.18,4,5.43,3.05,9.14-3.19,11.26-9.16,3.1-18.81,5.34-27.23,9.86-5.42,2.9-10.15,5.12-16.36,5-7.05-.16-10.08,3.48-9.63,10.37.47,7.26,1.16,14.5,1.7,21.76C236.07,394.27,237.26,410.74,238.56,428.4Z" transform="translate(-132.45 -233.6)"/><path d="M238.56,428.4c-1.3-17.66-2.49-34.13-3.71-50.6-.54-7.26-1.23-14.5-1.7-21.76-.45-6.89,2.58-10.53,9.63-10.37,6.21.15,10.94-2.07,16.36-5,8.42-4.52,18.07-6.76,27.23-9.86,6.24-2.12,7.17-5.83,3.19-11.26-2.56-3.49-4.31-7.58-6.74-11.18a11.23,11.23,0,0,0-4.49-3.92c-6.33-2.78-8.91-8-7.36-14.33a92,92,0,0,0,2.78-16.52,35,35,0,0,1,30.75-32.91c16.21-1.89,32.08,9.08,36.34,25.42.87,3.35.49,7,1,10.47a73.36,73.36,0,0,0,2.7,12.55c2.2,6.31-.38,12.28-6.62,15.29-2.18,1.05-3.93,3.33-5.42,5.39-2.17,3-3.64,6.52-5.9,9.45-4.37,5.65-3.38,9.24,3,11.64,11.23,4.21,23.73,5.21,33.31,13.81,1.79,1.61,5.92.68,9,.78,8.38.29,11.16,3,10.59,11.43-1.39,20.45-3.05,40.88-4.59,61.33-.23,3.05-.39,6.11-.65,10.12,10.75,0,21.05-.09,31.34,0,10.67.12,18.52,7.07,20,17.42,1,6.79-.23,8.26-7.12,8.26q-74.46,0-148.9,0c-26,0-52.06-.16-78.09.15-6.1.07-7.61-2.18-7.14-7.77.87-10.24,8.59-17.88,19.19-18.05C216.89,428.27,227.21,428.4,238.56,428.4Zm137.83-76h-137c1.89,25.38,3.75,50.29,5.6,75.23a25.28,25.28,0,0,0,3.26.57c39.27,0,78.54,0,117.81.13,4.28,0,5.17-1.95,5.4-5.51.91-13.42,2-26.83,2.94-40.25C375.06,372.72,375.69,362.87,376.39,352.39ZM192.87,450.87l229,.81c.09-4.12-.43-10.68-4.89-14.38-3.43-2.85-7.76-2.8-9.26-2.8q-99.6-.15-199.19,0a15,15,0,0,0-8.86,2.32C194.69,440.2,193.32,446.62,192.87,450.87Zm95.54-165.54c0,4.39-.06,9.65,0,14.91.16,12,8.29,20.69,19.36,20.81,10.58.13,19.19-8.38,19.89-19.85.24-3.95-.22-8,.16-11.9.6-6.14-1.61-10.65-5.31-12.95Zm46.72-2c.62-2.9,2.51-13.49-3.58-23.05a28.4,28.4,0,0,0-7.17-7.62c-9.4-6.89-19.68-7.65-29.84-1.91a29.81,29.81,0,0,0-10.65,10.12c-6.19,10-4,20.54-3.47,23,1.91-.66,5.13-1.73,9.16-3,15.34-4.71,16.13-3.65,22.58-6.58,6-2.73,7.53-4.65,10.58-3.87s5.14,3.41,8.39,7.35A52.41,52.41,0,0,1,335.13,283.29Zm-27.29,60c3.53-6.38,10.14-9.39,9.68-16.75H296.23Zm-41.82.57.26,1.11h34l.88-1.62c-3.23-2.45-6.86-7.34-9.63-6.9C282.88,337.89,274.51,341.29,266,343.91Zm83.91,1.19.27-1c-6.36-2-12.71-4.07-19.08-6.07-10.07-3.17-10.08-3.15-15.72,7.05Zm-68.46-56.47c-6.3,4.24-6.19,6.51,0,9.54ZM334.26,298l1.53.7c1-1.74,2.87-3.5,2.85-5.24s-2-3.25-3.13-4.88l-1.25.83Z" transform="translate(-132.45 -233.6)"/><path class="cls-1" d="M378.48,352.16c-.8,10.29-4.68,66-5.71,70.26-.78,3.26-2.41,4.48-2.79,4.75a6.87,6.87,0,0,1-4,1.15c-3.81.06-16,.09-32.66-.09l-85.15,0-6-.06-5.13-76.65ZM317.25,367.7l-2.87-3.52c-1.19,1.05-3.11,1.9-3.47,3.19q-6.17,21.83-11.8,43.81c-.31,1.23,1.1,2.89,1.71,4.35,1.44-1,3.8-1.67,4.17-2.95C309.15,398,313,383.42,317.25,367.7ZM280.17,390c4.68-3.65,8.65-6.44,12.21-9.69,1.12-1,1.13-3.26,1.64-4.94-1.76,0-4-.78-5.2,0C283.56,379,278.57,383,273.57,387c-2.84,2.24-2.19,4.46.42,6.46,4.89,3.75,9.67,7.67,14.74,11.16,1.2.82,3.38.22,5.1.27-.39-1.69-.22-4-1.27-5C288.87,396.55,284.76,393.63,280.17,390Zm55.51,0c-4.69,3.66-8.8,6.56-12.47,9.94-1,.95-.77,3.32-1.1,5,1.56,0,3.56.62,4.61-.11a174.11,174.11,0,0,0,15.6-12.09c.95-.85.81-4.76-.23-5.7A148.4,148.4,0,0,0,327,375.42c-1.18-.81-3.44-.05-5.21,0,.54,1.71.56,4,1.71,5C327.07,383.68,331,386.45,335.68,390.05Z" transform="translate(-132.45 -233.6)"/><path class="cls-1" d="M193.56,447.53c2.38-9.37,6.49-13,14.94-13.06q99.6-.11,199.19,0c8.42,0,12.94,4.32,14.16,13Z" transform="translate(-132.45 -233.6)"/><path class="cls-1" d="M288.41,285.33l34.11-9c3.7,2.3,5.91,6.81,5.31,12.95-.38,3.94.08,7.95-.16,11.9-.7,11.47-9.31,20-19.89,19.85-11.07-.12-19.2-8.84-19.36-20.81C288.35,295,288.41,289.72,288.41,285.33Z" transform="translate(-132.45 -233.6)"/><path class="cls-1" d="M335.23,283.84a61.45,61.45,0,0,0-4.84-5.42c-3.47-3.45-5.43-5.4-8-6.19-2.9-.89-4.7.24-11,2.38-9.78,3.34-9.44,2-19.61,5.57-2.83,1-6.73,2.48-11.31,4.53-.58-2.38-3.05-13.49,3.44-23.88a30.21,30.21,0,0,1,10.65-10.12c10.16-5.74,20.44-5,29.84,1.91a28.64,28.64,0,0,1,7.17,7.62C337.82,270,335.85,280.93,335.23,283.84Z" transform="translate(-132.45 -233.6)"/><path class="cls-1" d="M307.84,343.34l-11.61-16.75h21.29C318,334,311.37,337,307.84,343.34Z" transform="translate(-132.45 -233.6)"/><path class="cls-1" d="M266,343.91c8.49-2.62,16.86-6,25.55-7.41,2.77-.44,6.4,4.45,9.63,6.9l-.88,1.62h-34Z" transform="translate(-132.45 -233.6)"/><path class="cls-1" d="M349.93,345.1H315.4c5.64-10.2,5.65-10.22,15.72-7.05,6.37,2,12.72,4.05,19.08,6.07Z" transform="translate(-132.45 -233.6)"/><path class="cls-1" d="M281.47,288.63v9.54C275.28,295.14,275.17,292.87,281.47,288.63Z" transform="translate(-132.45 -233.6)"/><path class="cls-1" d="M334.26,298v-8.59l1.25-.83c1.12,1.63,3.11,3.24,3.13,4.88s-1.82,3.5-2.85,5.24Z" transform="translate(-132.45 -233.6)"/><path d="M317.25,367.7C313,383.42,309.15,398,305,412.58c-.37,1.28-2.73,2-4.17,2.95-.61-1.46-2-3.12-1.71-4.35q5.63-22,11.8-43.81c.36-1.29,2.28-2.14,3.47-3.19Z" transform="translate(-132.45 -233.6)"/><path d="M280.17,390c4.59,3.6,8.7,6.52,12.39,9.91,1.05,1,.88,3.27,1.27,5-1.72,0-3.9.55-5.1-.27-5.07-3.49-9.85-7.41-14.74-11.16-2.61-2-3.26-4.22-.42-6.46,5-4,10-8,15.25-11.58,1.18-.81,3.44-.06,5.2,0-.51,1.68-.52,3.92-1.64,4.94C288.82,383.59,284.85,386.38,280.17,390Z" transform="translate(-132.45 -233.6)"/><path d="M335.68,390.05c-4.64-3.6-8.61-6.37-12.15-9.61-1.15-1.05-1.17-3.32-1.71-5,1.77,0,4-.8,5.21,0a148.4,148.4,0,0,1,15.06,11.71c1,.94,1.18,4.85.23,5.7a174.11,174.11,0,0,1-15.6,12.09c-1.05.73-3.05.11-4.61.11.33-1.72.07-4.09,1.1-5C326.88,396.61,331,393.71,335.68,390.05Z" transform="translate(-132.45 -233.6)"/><rect class="cls-2" width="340.56" height="227.6"/></svg>